<mxfile host="app.diagrams.net" agent="Mozilla/5.0 (Windows NT 10.0; Win64; x64) AppleWebKit/537.36 (KHTML, like Gecko) Chrome/137.0.0.0 Safari/537.36" version="27.1.1">
  <diagram id="Ht1M8jgEwFfnCIfOTk4-" name="Page-1">
    <mxGraphModel dx="1489" dy="753" grid="1" gridSize="10" guides="1" tooltips="1" connect="1" arrows="1" fold="1" page="1" pageScale="1" pageWidth="1169" pageHeight="827" math="0" shadow="0">
      <root>
        <mxCell id="0" />
        <mxCell id="1" parent="0" />
        <mxCell id="muVdWebalJNDz-LeGkok-28" value="AWS Cloud" style="points=[[0,0],[0.25,0],[0.5,0],[0.75,0],[1,0],[1,0.25],[1,0.5],[1,0.75],[1,1],[0.75,1],[0.5,1],[0.25,1],[0,1],[0,0.75],[0,0.5],[0,0.25]];outlineConnect=0;gradientColor=none;html=1;whiteSpace=wrap;fontSize=12;fontStyle=0;container=1;pointerEvents=0;collapsible=0;recursiveResize=0;shape=mxgraph.aws4.group;grIcon=mxgraph.aws4.group_aws_cloud_alt;strokeColor=#232F3E;fillColor=none;verticalAlign=top;align=left;spacingLeft=30;fontColor=#232F3E;dashed=0;" vertex="1" parent="1">
          <mxGeometry x="30" y="130" width="910" height="510" as="geometry" />
        </mxCell>
        <mxCell id="muVdWebalJNDz-LeGkok-24" value="" style="sketch=0;points=[[0,0,0],[0.25,0,0],[0.5,0,0],[0.75,0,0],[1,0,0],[0,1,0],[0.25,1,0],[0.5,1,0],[0.75,1,0],[1,1,0],[0,0.25,0],[0,0.5,0],[0,0.75,0],[1,0.25,0],[1,0.5,0],[1,0.75,0]];outlineConnect=0;fontColor=#232F3E;fillColor=#8C4FFF;strokeColor=#ffffff;dashed=0;verticalLabelPosition=bottom;verticalAlign=top;align=center;html=1;fontSize=12;fontStyle=0;aspect=fixed;shape=mxgraph.aws4.resourceIcon;resIcon=mxgraph.aws4.transit_gateway;" vertex="1" parent="muVdWebalJNDz-LeGkok-28">
          <mxGeometry x="790" y="70" width="78" height="78" as="geometry" />
        </mxCell>
        <mxCell id="muVdWebalJNDz-LeGkok-26" value="&lt;b&gt;Transit Gateway&lt;/b&gt;&lt;div&gt;Comunicação com&amp;nbsp;&lt;/div&gt;&lt;div&gt;Equinix&amp;nbsp;&lt;span style=&quot;background-color: transparent; color: light-dark(rgb(0, 0, 0), rgb(255, 255, 255));&quot;&gt;via&amp;nbsp;&lt;/span&gt;&lt;/div&gt;&lt;div&gt;&lt;span style=&quot;background-color: transparent; color: light-dark(rgb(0, 0, 0), rgb(255, 255, 255));&quot;&gt;Direct Connect&lt;/span&gt;&lt;/div&gt;" style="text;html=1;align=left;verticalAlign=top;whiteSpace=wrap;rounded=0;fontSize=12;" vertex="1" parent="muVdWebalJNDz-LeGkok-28">
          <mxGeometry x="790" y="160" width="120" height="70" as="geometry" />
        </mxCell>
        <mxCell id="muVdWebalJNDz-LeGkok-1" value="&lt;font style=&quot;color: rgb(0, 0, 0);&quot;&gt;VPC_GRSA [172.17.0.0/16]&lt;/font&gt;" style="points=[[0,0],[0.25,0],[0.5,0],[0.75,0],[1,0],[1,0.25],[1,0.5],[1,0.75],[1,1],[0.75,1],[0.5,1],[0.25,1],[0,1],[0,0.75],[0,0.5],[0,0.25]];outlineConnect=0;gradientColor=none;html=1;whiteSpace=wrap;fontSize=12;fontStyle=0;container=1;pointerEvents=0;collapsible=0;recursiveResize=0;shape=mxgraph.aws4.group;grIcon=mxgraph.aws4.group_vpc2;strokeColor=#8C4FFF;fillColor=none;verticalAlign=top;align=left;spacingLeft=30;fontColor=#AAB7B8;dashed=0;" vertex="1" parent="1">
          <mxGeometry x="60" y="160" width="740" height="450" as="geometry" />
        </mxCell>
        <mxCell id="muVdWebalJNDz-LeGkok-2" value="SN_GRSA_INFRA_0D" style="points=[[0,0],[0.25,0],[0.5,0],[0.75,0],[1,0],[1,0.25],[1,0.5],[1,0.75],[1,1],[0.75,1],[0.5,1],[0.25,1],[0,1],[0,0.75],[0,0.5],[0,0.25]];outlineConnect=0;gradientColor=none;html=1;whiteSpace=wrap;fontSize=12;fontStyle=0;container=1;pointerEvents=0;collapsible=0;recursiveResize=0;shape=mxgraph.aws4.group;grIcon=mxgraph.aws4.group_security_group;grStroke=0;strokeColor=#00A4A6;fillColor=#E6F6F7;verticalAlign=top;align=left;spacingLeft=30;fontColor=#147EBA;dashed=0;" vertex="1" parent="muVdWebalJNDz-LeGkok-1">
          <mxGeometry x="30" y="40" width="200" height="100" as="geometry" />
        </mxCell>
        <mxCell id="muVdWebalJNDz-LeGkok-3" value="&lt;font style=&quot;font-size: 16px;&quot;&gt;SubNet Infraestrutura&lt;/font&gt;&lt;div&gt;&lt;font style=&quot;font-size: 16px;&quot;&gt;172.17.0.0/24&lt;/font&gt;&lt;/div&gt;" style="text;html=1;align=center;verticalAlign=middle;resizable=0;points=[];autosize=1;strokeColor=none;fillColor=none;" vertex="1" parent="muVdWebalJNDz-LeGkok-2">
          <mxGeometry x="5" y="30" width="180" height="50" as="geometry" />
        </mxCell>
        <mxCell id="muVdWebalJNDz-LeGkok-6" value="SN_GRSA_DEV_10D" style="points=[[0,0],[0.25,0],[0.5,0],[0.75,0],[1,0],[1,0.25],[1,0.5],[1,0.75],[1,1],[0.75,1],[0.5,1],[0.25,1],[0,1],[0,0.75],[0,0.5],[0,0.25]];outlineConnect=0;gradientColor=none;html=1;whiteSpace=wrap;fontSize=12;fontStyle=0;container=1;pointerEvents=0;collapsible=0;recursiveResize=0;shape=mxgraph.aws4.group;grIcon=mxgraph.aws4.group_security_group;grStroke=0;strokeColor=#00A4A6;fillColor=#E6F6F7;verticalAlign=top;align=left;spacingLeft=30;fontColor=#147EBA;dashed=0;" vertex="1" parent="muVdWebalJNDz-LeGkok-1">
          <mxGeometry x="30" y="180" width="200" height="100" as="geometry" />
        </mxCell>
        <mxCell id="muVdWebalJNDz-LeGkok-7" value="&lt;font style=&quot;font-size: 16px;&quot;&gt;SubNet Desenvolvimento&lt;/font&gt;&lt;div&gt;&lt;font style=&quot;font-size: 16px;&quot;&gt;172.17.10.0/24&lt;/font&gt;&lt;/div&gt;" style="text;html=1;align=center;verticalAlign=middle;resizable=0;points=[];autosize=1;strokeColor=none;fillColor=none;" vertex="1" parent="muVdWebalJNDz-LeGkok-6">
          <mxGeometry x="-5" y="30" width="200" height="50" as="geometry" />
        </mxCell>
        <mxCell id="muVdWebalJNDz-LeGkok-8" value="SN_GRSA_DMZ_255D" style="points=[[0,0],[0.25,0],[0.5,0],[0.75,0],[1,0],[1,0.25],[1,0.5],[1,0.75],[1,1],[0.75,1],[0.5,1],[0.25,1],[0,1],[0,0.75],[0,0.5],[0,0.25]];outlineConnect=0;gradientColor=none;html=1;whiteSpace=wrap;fontSize=12;fontStyle=0;container=1;pointerEvents=0;collapsible=0;recursiveResize=0;shape=mxgraph.aws4.group;grIcon=mxgraph.aws4.group_security_group;grStroke=0;strokeColor=#7AA116;fillColor=#F2F6E8;verticalAlign=top;align=left;spacingLeft=30;fontColor=#248814;dashed=0;" vertex="1" parent="muVdWebalJNDz-LeGkok-1">
          <mxGeometry x="270" y="40" width="200" height="100" as="geometry" />
        </mxCell>
        <mxCell id="muVdWebalJNDz-LeGkok-9" value="&lt;font style=&quot;font-size: 16px;&quot;&gt;SubNet DMZ&lt;/font&gt;&lt;div&gt;&lt;font style=&quot;font-size: 16px;&quot;&gt;172.17.255.0/24&lt;/font&gt;&lt;/div&gt;" style="text;html=1;align=center;verticalAlign=middle;resizable=0;points=[];autosize=1;strokeColor=none;fillColor=none;" vertex="1" parent="muVdWebalJNDz-LeGkok-8">
          <mxGeometry x="30" y="30" width="140" height="50" as="geometry" />
        </mxCell>
        <mxCell id="muVdWebalJNDz-LeGkok-10" value="SN_GRSA_QAS_20D" style="points=[[0,0],[0.25,0],[0.5,0],[0.75,0],[1,0],[1,0.25],[1,0.5],[1,0.75],[1,1],[0.75,1],[0.5,1],[0.25,1],[0,1],[0,0.75],[0,0.5],[0,0.25]];outlineConnect=0;gradientColor=none;html=1;whiteSpace=wrap;fontSize=12;fontStyle=0;container=1;pointerEvents=0;collapsible=0;recursiveResize=0;shape=mxgraph.aws4.group;grIcon=mxgraph.aws4.group_security_group;grStroke=0;strokeColor=#00A4A6;fillColor=#E6F6F7;verticalAlign=top;align=left;spacingLeft=30;fontColor=#147EBA;dashed=0;" vertex="1" parent="muVdWebalJNDz-LeGkok-1">
          <mxGeometry x="270" y="180" width="200" height="100" as="geometry" />
        </mxCell>
        <mxCell id="muVdWebalJNDz-LeGkok-11" value="&lt;font style=&quot;font-size: 16px;&quot;&gt;SubNet Homologação&lt;/font&gt;&lt;div&gt;&lt;font style=&quot;font-size: 16px;&quot;&gt;172.17.20.0/24&lt;/font&gt;&lt;/div&gt;" style="text;html=1;align=center;verticalAlign=middle;resizable=0;points=[];autosize=1;strokeColor=none;fillColor=none;" vertex="1" parent="muVdWebalJNDz-LeGkok-10">
          <mxGeometry x="5" y="30" width="180" height="50" as="geometry" />
        </mxCell>
        <mxCell id="muVdWebalJNDz-LeGkok-12" value="SN_GRSA_PRD_30D" style="points=[[0,0],[0.25,0],[0.5,0],[0.75,0],[1,0],[1,0.25],[1,0.5],[1,0.75],[1,1],[0.75,1],[0.5,1],[0.25,1],[0,1],[0,0.75],[0,0.5],[0,0.25]];outlineConnect=0;gradientColor=none;html=1;whiteSpace=wrap;fontSize=12;fontStyle=0;container=1;pointerEvents=0;collapsible=0;recursiveResize=0;shape=mxgraph.aws4.group;grIcon=mxgraph.aws4.group_security_group;grStroke=0;strokeColor=#00A4A6;fillColor=#E6F6F7;verticalAlign=top;align=left;spacingLeft=30;fontColor=#147EBA;dashed=0;" vertex="1" parent="muVdWebalJNDz-LeGkok-1">
          <mxGeometry x="510" y="180" width="200" height="100" as="geometry" />
        </mxCell>
        <mxCell id="muVdWebalJNDz-LeGkok-13" value="&lt;font style=&quot;font-size: 16px;&quot;&gt;SubNet Produção&lt;/font&gt;&lt;div&gt;&lt;font style=&quot;font-size: 16px;&quot;&gt;172.17.30.0/24&lt;/font&gt;&lt;/div&gt;" style="text;html=1;align=center;verticalAlign=middle;resizable=0;points=[];autosize=1;strokeColor=none;fillColor=none;" vertex="1" parent="muVdWebalJNDz-LeGkok-12">
          <mxGeometry x="20" y="30" width="150" height="50" as="geometry" />
        </mxCell>
        <mxCell id="muVdWebalJNDz-LeGkok-14" value="ELB_PRIVATE_D" style="points=[[0,0],[0.25,0],[0.5,0],[0.75,0],[1,0],[1,0.25],[1,0.5],[1,0.75],[1,1],[0.75,1],[0.5,1],[0.25,1],[0,1],[0,0.75],[0,0.5],[0,0.25]];outlineConnect=0;gradientColor=none;html=1;whiteSpace=wrap;fontSize=12;fontStyle=0;container=1;pointerEvents=0;collapsible=0;recursiveResize=0;shape=mxgraph.aws4.group;grIcon=mxgraph.aws4.group_security_group;grStroke=0;strokeColor=#00A4A6;fillColor=#E6F6F7;verticalAlign=top;align=left;spacingLeft=30;fontColor=#147EBA;dashed=0;" vertex="1" parent="muVdWebalJNDz-LeGkok-1">
          <mxGeometry x="30" y="320" width="200" height="100" as="geometry" />
        </mxCell>
        <mxCell id="muVdWebalJNDz-LeGkok-15" value="&lt;font style=&quot;font-size: 16px;&quot;&gt;SubNet LoadBalance_D&lt;/font&gt;&lt;div&gt;&lt;font style=&quot;font-size: 16px;&quot;&gt;172.17.248.0/24&lt;/font&gt;&lt;/div&gt;" style="text;html=1;align=center;verticalAlign=middle;resizable=0;points=[];autosize=1;strokeColor=none;fillColor=none;" vertex="1" parent="muVdWebalJNDz-LeGkok-14">
          <mxGeometry x="-5" y="30" width="200" height="50" as="geometry" />
        </mxCell>
        <mxCell id="muVdWebalJNDz-LeGkok-20" value="&lt;span style=&quot;color: rgb(20, 126, 186);&quot;&gt;ELB_PUBLIC_A&lt;/span&gt;" style="points=[[0,0],[0.25,0],[0.5,0],[0.75,0],[1,0],[1,0.25],[1,0.5],[1,0.75],[1,1],[0.75,1],[0.5,1],[0.25,1],[0,1],[0,0.75],[0,0.5],[0,0.25]];outlineConnect=0;gradientColor=none;html=1;whiteSpace=wrap;fontSize=12;fontStyle=0;container=1;pointerEvents=0;collapsible=0;recursiveResize=0;shape=mxgraph.aws4.group;grIcon=mxgraph.aws4.group_security_group;grStroke=0;strokeColor=#7AA116;fillColor=#F2F6E8;verticalAlign=top;align=left;spacingLeft=30;fontColor=#248814;dashed=0;" vertex="1" parent="muVdWebalJNDz-LeGkok-1">
          <mxGeometry x="510" y="320" width="200" height="100" as="geometry" />
        </mxCell>
        <mxCell id="muVdWebalJNDz-LeGkok-23" value="&lt;font style=&quot;font-size: 16px;&quot;&gt;SubNet LoadBalance_A&lt;/font&gt;&lt;div&gt;&lt;font style=&quot;font-size: 16px;&quot;&gt;172.17.254.0/24&lt;/font&gt;&lt;/div&gt;" style="text;html=1;align=center;verticalAlign=middle;resizable=0;points=[];autosize=1;strokeColor=none;fillColor=none;" vertex="1" parent="muVdWebalJNDz-LeGkok-20">
          <mxGeometry x="5" y="30" width="190" height="50" as="geometry" />
        </mxCell>
        <mxCell id="muVdWebalJNDz-LeGkok-21" value="ELB_PRIVATE_A" style="points=[[0,0],[0.25,0],[0.5,0],[0.75,0],[1,0],[1,0.25],[1,0.5],[1,0.75],[1,1],[0.75,1],[0.5,1],[0.25,1],[0,1],[0,0.75],[0,0.5],[0,0.25]];outlineConnect=0;gradientColor=none;html=1;whiteSpace=wrap;fontSize=12;fontStyle=0;container=1;pointerEvents=0;collapsible=0;recursiveResize=0;shape=mxgraph.aws4.group;grIcon=mxgraph.aws4.group_security_group;grStroke=0;strokeColor=#00A4A6;fillColor=#E6F6F7;verticalAlign=top;align=left;spacingLeft=30;fontColor=#147EBA;dashed=0;" vertex="1" parent="muVdWebalJNDz-LeGkok-1">
          <mxGeometry x="270" y="320" width="200" height="100" as="geometry" />
        </mxCell>
        <mxCell id="muVdWebalJNDz-LeGkok-22" value="&lt;font style=&quot;font-size: 16px;&quot;&gt;SubNet LoadBalance_A&lt;/font&gt;&lt;div&gt;&lt;font style=&quot;font-size: 16px;&quot;&gt;172.17.249.0/24&lt;/font&gt;&lt;/div&gt;" style="text;html=1;align=center;verticalAlign=middle;resizable=0;points=[];autosize=1;strokeColor=none;fillColor=none;" vertex="1" parent="muVdWebalJNDz-LeGkok-21">
          <mxGeometry y="30" width="190" height="50" as="geometry" />
        </mxCell>
      </root>
    </mxGraphModel>
  </diagram>
</mxfile>
